<?xml version="1.0" standalone="no"?>
<!DOCTYPE svg PUBLIC "-//W3C//DTD SVG 20010904//EN"
 "http://www.w3.org/TR/2001/REC-SVG-20010904/DTD/svg10.dtd">
<svg version="1.0" xmlns="http://www.w3.org/2000/svg"
 width="323.000000pt" height="323.000000pt" viewBox="0 0 323.000000 323.000000"
 preserveAspectRatio="xMidYMid meet">
<metadata>
Created by potrace 1.14, written by Peter Selinger 2001-2017
</metadata>
<g transform="translate(0.000000,323.000000) scale(0.100000,-0.100000)"
fill="#000000" stroke="none">
<path d="M978 3173 c-27 -31 -26 -46 9 -142 43 -120 77 -151 133 -121 34 18
42 45 29 97 -17 66 -56 155 -76 171 -24 18 -77 15 -95 -5z"/>
<path d="M662 3127 c-28 -30 -28 -68 1 -95 46 -43 120 -15 120 46 0 67 -76 97
-121 49z"/>
<path d="M369 3132 c-15 -2 -35 -12 -45 -23 -29 -32 -36 -9 239 -759 80 -217
228 -620 330 -895 102 -275 235 -637 297 -805 134 -364 165 -433 225 -495 114
-117 309 -148 459 -73 57 29 134 106 163 162 21 41 388 1038 563 1526 26 74
95 263 153 420 126 344 175 481 179 498 4 18 -811 17 -829 -1 -7 -7 -37 -82
-68 -167 -31 -85 -69 -189 -84 -230 -15 -41 -76 -209 -135 -372 -60 -163 -113
-304 -120 -313 -15 -20 -9 -33 -201 485 -233 630 -246 663 -272 698 -28 38
-58 41 -97 11 -32 -25 -34 -58 -5 -135 17 -45 20 -65 13 -93 -18 -73 -112 -80
-146 -11 -10 19 -41 98 -69 175 -56 152 -77 185 -121 185 -30 0 -78 -41 -78
-66 0 -7 16 -57 35 -110 43 -118 45 -155 9 -183 -44 -35 -96 -24 -122 24 -6
12 -48 122 -95 246 -114 304 -117 309 -178 301z"/>
</g>
</svg>
